<svg xmlns="http://www.w3.org/2000/svg" viewBox="0 0 200 200" fill="none">
  <defs>
    <linearGradient id="gold" x1="0%" y1="0%" x2="100%" y2="100%">
      <stop offset="0%" stop-color="#D4A853"/>
      <stop offset="30%" stop-color="#C9A84C"/>
      <stop offset="50%" stop-color="#E8C96A"/>
      <stop offset="70%" stop-color="#C9A84C"/>
      <stop offset="100%" stop-color="#B8923D"/>
    </linearGradient>
    <linearGradient id="gold-light" x1="0%" y1="0%" x2="100%" y2="100%">
      <stop offset="0%" stop-color="#F5E6B8"/>
      <stop offset="50%" stop-color="#E8D5A0"/>
      <stop offset="100%" stop-color="#F5E6B8"/>
    </linearGradient>
  </defs>
  <!-- G letter -->
  <path d="M30 100C30 58 58 25 100 25C125 25 145 38 155 55L140 65C133 52 118 42 100 42C70 42 50 68 50 100C50 132 70 158 100 158C120 158 135 148 140 132V112H105V96H156V138C146 165 125 178 100 178C58 178 30 142 30 100Z" fill="url(#gold)"/>
  <!-- A letter (centered, overlapping) -->
  <path d="M85 170L100 30L115 170H105L100 148H95L100 148L85 170ZM97 130H103L100 60L97 130Z" fill="url(#gold)" opacity="0.9"/>
  <!-- F letter -->
  <path d="M125 170V40H170V56H142V98H165V114H142V170H125Z" fill="url(#gold)"/>
</svg>
